# xmcd CD database file
#
# Track frame offsets:
#	150
#	20621
#	38271
#	57424
#	71898
#	91679
#	103584
#	120034
#	138829
#	156139
#	176182
#	201433
#
# Disc length: 2923 seconds
#
# Revision: 6
# Processed by: cddbd v1.5.2PL0 Copyright (c) Steve Scherf et al.
# Submitted via: CDex 1.70beta2
#
DISCID=990b690c
DTITLE=MAMALAID RAG - MAMALAID RAG 2
DYEAR=2006
DGENRE=Pop
TTITLE0=カレンダー
TTITLE1=レイン
TTITLE2=ふたりで目覚めたら [original version]
TTITLE3=HER MEDITATION
TTITLE4=街灯 [electric version]
TTITLE5=MAMALAID JAM
TTITLE6=銀の爪
TTITLE7=菜の花
TTITLE8=そばにいたい
TTITLE9=きみの瞳の中に
TTITLE10=愛の讃歌
TTITLE11=消えた恋
EXTD=YEAR: 2006
EXTT0=
EXTT1=
EXTT2=
EXTT3=
EXTT4=
EXTT5=
EXTT6=
EXTT7=
EXTT8=
EXTT9=
EXTT10=
EXTT11=
PLAYORDER=
